<svg id="a" data-name="Layer 1" xmlns="http://www.w3.org/2000/svg" width="150px" height="39.74px" viewBox="0 0 804.739 213.925">
  <g>
    <g>
      <path d="m238.555,135.967l5.458-9.64c.93-1.509,3.136-1.279,3.949-.696.466.23,8.83,6.388,16.494,6.388,4.648,0,8.017-2.906,8.017-6.971,0-4.878-4.065-8.595-11.966-11.731-9.99-3.95-22.535-11.732-22.535-25.671,0-11.499,8.947-23.115,26.834-23.115,12.079,0,21.372,6.156,24.858,8.712,1.393.813,1.16,2.904.696,3.717l-5.924,8.943c-.813,1.278-2.902,2.323-3.949,1.509-1.046-.58-9.523-6.969-16.611-6.969-4.182,0-7.317,2.787-7.317,5.924,0,4.297,3.485,7.551,12.662,11.268,9.06,3.6,23.462,10.686,23.462,26.482,0,11.966-10.336,24.045-27.413,24.045-15.098,0-23.462-6.271-26.134-8.943-1.163-1.16-1.509-1.626-.58-3.252Z" fill="#fff"></path>
      <path d="m418.615,67.9c0-1.163.93-2.208,2.206-2.208h13.822c1.215,0,2.209.994,2.209,2.209v62.024h27.643c1.279,0,2.206,1.046,2.206,2.209v12.659c0,1.163-.926,2.209-2.206,2.209h-43.674c-1.276,0-2.206-1.046-2.206-2.209v-76.894Z" fill="#fff"></path>
      <path d="m490.755,135.967l5.461-9.64c.93-1.509,3.136-1.279,3.949-.696.463.23,8.827,6.388,16.494,6.388,4.645,0,8.014-2.906,8.014-6.971,0-4.878-4.065-8.595-11.962-11.731-9.99-3.95-22.535-11.732-22.535-25.671,0-11.499,8.943-23.115,26.83-23.115,12.082,0,21.375,6.156,24.858,8.712,1.396.813,1.163,2.904.7,3.717l-5.924,8.943c-.813,1.278-2.906,2.323-3.949,1.509-1.046-.58-9.526-6.969-16.611-6.969-4.182,0-7.321,2.787-7.321,5.924,0,4.297,3.485,7.551,12.662,11.268,9.06,3.6,23.465,10.686,23.465,26.482,0,11.966-10.339,24.045-27.413,24.045-15.101,0-23.465-6.271-26.134-8.943-1.163-1.16-1.513-1.626-.583-3.252Z" fill="#fff"></path>
      <path d="m576.487,67.9c0-1.163,1.046-2.208,2.206-2.208h13.941c1.16,0,2.206,1.045,2.206,2.208v76.894c0,1.163-1.046,2.209-2.206,2.209h-13.941c-1.16,0-2.206-1.046-2.206-2.209v-76.894Z" fill="#fff"></path>
      <path d="m632.247,67.9c0-1.163.93-2.208,2.206-2.208h48.089c1.279,0,2.209,1.045,2.209,2.208v12.66c0,1.161-.93,2.208-2.209,2.208h-32.175v16.726h19.057c1.163,0,2.206,1.046,2.206,2.208v12.66c0,1.161-1.043,2.208-2.206,2.208h-19.057v28.225c0,1.163-1.046,2.209-2.206,2.209h-13.708c-1.276,0-2.206-1.046-2.206-2.209v-76.894Z" fill="#fff"></path>
      <path d="m732.613,115.284l-30.644-46.223c-.93-1.511,0-3.369,1.859-3.369h15.098c.93,0,1.509.58,1.859,1.045l21.12,31.24,19.343-31.24c.35-.465.813-1.045,1.859-1.045h15.098c1.859,0,2.789,1.858,1.859,3.369l-29.216,46.106v29.626c0,1.163-1.046,2.209-2.209,2.209h-13.822c-1.276,0-2.206-1.046-2.206-2.209v-29.51Z" fill="#fff"></path>
    </g>
    <g>
      <polygon points="361.573 119.123 352.743 99.958 352.626 99.958 361.505 119.123 361.573 119.123" fill="none"></polygon>
      <path d="m391.656,143.98l-36.357-78.172c-.347-.697-1.16-1.277-1.976-1.277h-1.16c-.813,0-1.626.58-1.976,1.277l-36.357,78.172c-.696,1.513.233,3.022,1.976,3.022h12.775c1.261,0,2.191-.425,2.892-1.023l21.153-46.022h.117l8.83,19.165h-.068l12.408,26.785c.716.76,1.556,1.094,2.875,1.094h12.892c1.743,0,2.672-1.509,1.976-3.022Z" fill="#fff"></path>
    </g>
    <path d="m344.344,139.238h0c0-4.635,3.757-8.391,8.391-8.391h0c6.874,0,10.832,7.812,6.767,13.354h0c-4.796,6.539-15.158,3.147-15.158-4.963Z" fill="#fff"></path>
  </g>
  <path d="m182.857,66.363c-.078-.735-.004-1.462-.114-2.198-1.997-13.3-9.054-25.025-19.871-33.016-8.727-6.448-19.061-9.856-29.886-9.856-7.12,0-14.051,1.602-20.421,4.433-6.241-2.779-13.108-4.392-20.369-4.392-25.904,0-47.051,19.736-49.8,44.921-2.151,1.561-4.276,3.174-6.192,5.09-9.509,9.51-14.747,22.154-14.747,35.603s5.237,26.092,14.747,35.602c1.893,1.893,3.995,3.481,6.117,5.028.557,5.186,1.7,10.329,3.888,15.229,8.093,18.118,26.146,29.825,45.994,29.825,7.092,0,13.993-1.476,20.511-4.387.006-.003.011-.006.016-.009.518.227.953.563,1.482.775,6,2.404,12.295,3.622,18.713,3.622,20.7,0,39.051-12.417,46.75-31.634,1.764-4.403,2.63-8.905,3.105-13.404,12.602-9.16,20.896-23.911,20.896-40.647s-8.262-31.42-20.819-40.585Zm-49.853,46.683c-.271.006-.542.028-.813.028-.098,0-.198-.006-.296-.019-2.441-.029-4.976-.338-7.666-.907l-1.281-.248c-1.608-.365-1.972.186-.897,1.5l1.098,1.397c1.595,1.836,3.014,3.79,4.223,5.837.194.33.38.662.571.993.575.994,1.135,1.995,1.612,3.058,2.258,5.057,3.42,10.493,3.453,16.154l.015,1.252.003.224-.137-.08-1.143-.666c-5.784-3.382-10.627-8.194-14.101-13.939-.2-.331-.413-.652-.604-.989-1.333-2.345-2.416-4.87-3.256-7.507l-.339-.959c-.564-1.55-1.304-1.555-1.827.061l-.611,1.773s-.004-.007-.005-.011c-.795,2.318-1.786,4.553-2.975,6.654-.183.326-.367.637-.551.949-1.85,3.146-3.737,5.645-5.887,7.791-2.237,2.247-4.86,4.212-8.257,6.183l-1.071.633-.195.116v-.193s.01-1.287.01-1.287c.026-5.178.972-10.128,2.81-14.71.631-1.58,1.386-3.103,2.205-4.576.185-.333.352-.68.546-1.006,1.108-1.877,2.483-3.735,4.158-5.635l1.151-1.464c1.075-1.315.711-1.866-.897-1.5l-1.182.228c-2.712.571-5.249.876-7.691.893-.132.022-.229.032-.321.032-.268,0-.534-.021-.802-.027-6.535-.136-12.905-1.921-18.942-5.347l-1.108-.63-.167-.107.186-.108,1.096-.618c.369-.208,2.496-1.525,3.321-1.898,5.028-2.246,10.346-3.411,15.812-3.487.189-.003.972.002,1.156.025,2.241.024,4.607.291,7.037.776l1.658.32c1.608.365,1.972-.186.897-1.5l-1.095-1.393c-1.738-1.958-3.172-3.884-4.328-5.841-.199-.337-.373-.69-.561-1.034-3.123-5.712-4.813-12.287-4.859-19.116l-.015-1.322-.002-.163.2.118,1.081.637c3.347,1.962,5.943,3.912,8.169,6.137,2.148,2.15,4.032,4.646,5.878,7.781.187.318.374.635.56.966,1.225,2.163,2.237,4.463,3.041,6.847l.64,1.594c.564,1.55,1.225,1.557,1.747-.058l.611-1.773s.004.008.005.012c.793-2.3,1.782-4.521,2.968-6.616.193-.341.409-.667.611-1.001,3.484-5.76,8.337-10.572,14.13-13.942l1.17-.689.102-.06v.196s-.008,1.277-.008,1.277c-.021,6.695-1.766,13.146-5.146,19.2-.191.341-.365.686-.566,1.025-1.288,2.176-2.615,4.068-4.021,5.744,0,0,.001,0,.002,0l-1.159,1.475c-1.075,1.315-.711,1.866.897,1.5l1.275-.247c2.59-.542,5.051-.836,7.46-.864l.116-.011c.108-.011.215-.024.331-.015.246,0,.489.013.734.017,4.883.088,9.646,1.047,14.194,2.874,1.442.577,2.745,1.327,4.005,2.052l1.873,1.066.171.097-.135.076-1.16.654c-5.976,3.369-12.496,5.195-18.912,5.339Zm18.659-17.511c-4.419-1.771-9.028-2.672-13.698-3.143,2.879-6.335,4.578-13.311,4.578-20.71,0-1.284-.284-2.49-.379-3.75,3.57-1.022,7.265-1.743,11.163-1.743,7.414,0,14.271,2.129,20.262,5.589-.02,8.382-2.493,16.826-7.856,24.084-1.344,1.819-2.965,3.279-4.534,4.807-2.943-1.999-6.1-3.758-9.536-5.135Zm-18.678-64.652c8.414,0,16.901,2.596,24.187,7.979,7.462,5.513,12.347,13.125,14.754,21.394-5.767-2.306-12.018-3.658-18.599-3.658-4.44,0-8.669.761-12.774,1.846-2.903-10.567-9.107-19.678-17.512-26.259,3.255-.816,6.583-1.302,9.943-1.302Zm-27.225,10.539c.872-.754,1.776-1.46,2.7-2.134.602-.439,1.211-.862,1.831-1.269.758-.497,1.523-.98,2.303-1.432h0c1.156.673,2.263,1.415,3.342,2.193.965.696,1.909,1.417,2.807,2.191.634.547,1.251,1.112,1.849,1.696.534.521,1.05,1.059,1.555,1.608,1.18,1.283,2.273,2.645,3.28,4.073.494.7.974,1.41,1.423,2.142,2.11,3.436,3.722,7.214,4.738,11.245-7.591,3.669-14.125,9.111-19.016,15.891-1.579-2.185-3.219-4.337-5.163-6.281-4.1-4.1-8.867-7.233-13.945-9.667,1.26-5,3.456-9.851,6.71-14.255.855-1.158,1.766-2.244,2.725-3.265.912-.971,1.871-1.879,2.862-2.736Zm-13.564-10.498c1.665,0,3.294.127,4.895.349,1.601.222,3.172.537,4.721.914-3.489,2.744-6.67,5.905-9.353,9.537-3.759,5.088-6.383,10.75-8.003,16.674-4.101-1.062-8.301-1.8-12.648-1.8-6.452,0-12.694,1.273-18.518,3.577,4.991-16.867,20.422-29.251,38.907-29.251Zm-20.39,35.265c3.729,0,7.416.691,11.031,1.708-.271,3.709-.24,7.457.326,11.224.705,4.698,2.25,9.091,4.161,13.301-5.38.523-10.665,1.64-15.678,3.879-2.808,1.255-5.42,2.802-7.907,4.5-7.542-7.371-12.251-17.618-12.288-28.987,6.294-3.647,13.293-5.625,20.354-5.625Zm-26.652,58.096c-1.351,3.53-2.186,7.154-2.72,10.805-15.131-15.794-15.101-40.692.118-56.433,1.537,10.938,6.413,20.801,13.815,28.314-4.823,4.89-8.686,10.706-11.213,17.313Zm18.648-11.083c6.776,4.648,14.794,7.457,23.39,8.322-.311.688-.708,1.316-.991,2.022-2.952,7.367-3.841,14.997-3.278,22.424-3.643,1.034-7.359,1.734-11.118,1.734-7.044,0-14.026-1.971-20.308-5.6.054-10.856,4.49-21.267,12.304-28.901Zm28.402,69.837c-15.589,0-30.468-8.991-37.237-24.145-.76-1.7-1.206-3.449-1.717-5.188,5.835,2.314,12.091,3.589,18.557,3.589,4.386,0,8.622-.751,12.756-1.832,0,0,0,0,0,0h0c2.819,10.283,8.853,19.485,17.438,26.236-3.257.814-6.535,1.341-9.797,1.341Zm20.314-5.683c-9.692-5.633-16.377-14.774-19.002-25.169,5.058-2.432,9.807-5.553,13.893-9.639,1.944-1.944,3.585-4.096,5.163-6.281,4.883,6.767,11.403,12.2,18.976,15.868,0,0,0,0,0,0,0,0,0,0,0,0-2.613,10.394-9.254,19.558-19.03,25.221Zm58.254-19.926c-6.38,15.924-21.681,25.61-37.846,25.61-3.227,0-6.473-.539-9.704-1.337,8.588-6.77,14.493-16.024,17.294-26.265,0,0,0,0,0,0,0,0,0,0,0,0,4.116,1.091,8.358,1.858,12.812,1.858,6.556,0,12.782-1.348,18.531-3.637-.368,1.258-.59,2.53-1.087,3.772Zm-17.443-9.726c-3.904,0-7.603-.723-11.178-1.748.61-8.056-.479-16.338-3.998-24.218-.008-.019-.021-.035-.029-.054,8.388-.88,16.381-3.862,23.266-8.57h0c7.789,7.607,12.209,18.072,12.265,28.966-6.004,3.482-12.885,5.624-20.326,5.624Zm29.236-12.442c-1.521-10.623-6.238-20.595-13.815-28.302,0,0,0,0,0,0h0s0,0,0,0c1.673-1.69,3.27-3.463,4.699-5.398,5.053-6.839,7.994-14.706,9.142-22.898,7.088,7.333,11.495,17.278,11.495,28.283s-4.416,20.979-11.522,28.315Z" fill="#fff"></path>
</svg>
